<svg width="16" height="12" viewBox="0 0 16 12" fill="none" xmlns="http://www.w3.org/2000/svg">

<!-- FOOTER ICONS -->
    <g id='footerLogo'>
        <path d="M30.1791 21.2998L25.1711 26.6318C25.0631 26.7488 24.932 26.842 24.7859 26.9053C24.6399 26.9687 24.4822 27.0009 24.3231 26.9998H0.583068C0.46991 26.9992 0.359309 26.9661 0.264451 26.9044C0.169594 26.8427 0.0944808 26.755 0.0480677 26.6518C0.00252432 26.5488 -0.0113983 26.4347 0.0080677 26.3238C0.0279515 26.2124 0.0793066 26.109 0.156068 26.0258L5.15807 20.6938C5.26592 20.5767 5.39709 20.4834 5.54313 20.4201C5.68918 20.3567 5.84687 20.3246 6.00607 20.3258H29.7461C29.8598 20.3227 29.972 20.3535 30.0682 20.4143C30.1645 20.4751 30.2405 20.5631 30.2865 20.6672C30.3326 20.7712 30.3467 20.8867 30.3271 20.9988C30.3074 21.1109 30.2548 21.2146 30.1761 21.2968L30.1791 21.2998ZM25.1701 10.5598C25.0603 10.4451 24.9288 10.3534 24.7832 10.2902C24.6376 10.227 24.4808 10.1936 24.3221 10.1918H0.583068C0.4698 10.1925 0.359121 10.2257 0.264252 10.2876C0.169383 10.3495 0.0943336 10.4374 0.0480677 10.5408C0.00258294 10.6438 -0.0113375 10.7579 0.0080677 10.8688C0.0280677 10.9808 0.0790677 11.0818 0.156068 11.1658L5.15807 16.5008C5.26507 16.6158 5.39807 16.7088 5.54207 16.7708C5.68907 16.8348 5.84507 16.8658 6.00607 16.8688H29.7461C29.8587 16.8691 29.9688 16.8362 30.0629 16.7743C30.157 16.7125 30.2307 16.6243 30.2751 16.5208C30.3207 16.4179 30.3348 16.3038 30.3156 16.1929C30.2963 16.082 30.2447 15.9793 30.1671 15.8978L25.1671 10.5628L25.1701 10.5598ZM0.582068 6.72979H24.3221C24.4816 6.72895 24.6393 6.69631 24.7861 6.63379C24.9331 6.56979 25.0631 6.47979 25.1701 6.36179L30.1801 1.02979C30.2379 0.968025 30.2815 0.894341 30.3077 0.813923C30.334 0.733506 30.3423 0.648308 30.3321 0.564326C30.3219 0.480344 30.2934 0.399617 30.2487 0.327825C30.2039 0.256034 30.144 0.194922 30.0731 0.148791C29.9768 0.0871422 29.8643 0.0557901 29.7501 0.0587907H6.00607C5.84807 0.0587907 5.68907 0.0927907 5.54207 0.153791C5.39625 0.216693 5.26538 0.30973 5.15807 0.426791L0.156068 5.75879C0.0795477 5.84136 0.0286173 5.94435 0.00944827 6.05529C-0.00972079 6.16622 0.00369421 6.28033 0.0480677 6.38379C0.0944101 6.48684 0.169368 6.57442 0.264031 6.63611C0.358694 6.6978 0.46908 6.73101 0.582068 6.73179V6.72979Z" fill="url(#paint0_linear_1_371)"/>
        <defs>
        <linearGradient id="paint0_linear_1_371" x1="2.56107" y1="27.6418" x2="27.2581" y2="-0.397209" gradientUnits="userSpaceOnUse">
        <stop offset="0.08" stop-color="#9945FF"/>
        <stop offset="0.3" stop-color="#8752F3"/>
        <stop offset="0.5" stop-color="#5497D5"/>
        <stop offset="0.6" stop-color="#43B4CA"/>
        <stop offset="0.72" stop-color="#28E0B9"/>
        <stop offset="0.97" stop-color="#19FB9B"/>
        </linearGradient>
        </defs>
    </g>

    <g id='youtube'>
        <path d="M15.5333 2.86683C15.5333 2.7335 15.3333 1.66683 14.8666 1.20016C14.2666 0.533496 13.5999 0.466829 13.2666 0.466829H13.1999C11.1333 0.333496 8.06659 0.333496 7.99992 0.333496C7.99992 0.333496 4.86659 0.333496 2.79992 0.466829H2.73325C2.39992 0.466829 1.73325 0.533496 1.13325 1.20016C0.666585 1.7335 0.466585 2.80016 0.466585 2.9335C0.466585 3.00016 0.333252 4.20016 0.333252 5.46683V6.60016C0.333252 7.86683 0.466585 9.06683 0.466585 9.1335C0.466585 9.26683 0.666585 10.3335 1.13325 10.8002C1.66659 11.4002 2.33325 11.4668 2.73325 11.5335H2.93325C4.13325 11.6668 7.79992 11.6668 7.93325 11.6668C7.93325 11.6668 11.0666 11.6668 13.1333 11.5335H13.1999C13.5333 11.4668 14.1999 11.4002 14.7999 10.8002C15.2666 10.2668 15.4666 9.20016 15.4666 9.06683C15.4666 9.00016 15.5999 7.80016 15.5999 6.5335V5.40016C15.6666 4.20016 15.5333 2.9335 15.5333 2.86683ZM10.5999 6.1335L6.59992 8.26683C6.53325 8.26683 6.53325 8.3335 6.46659 8.3335C6.39992 8.3335 6.33325 8.3335 6.33325 8.26683C6.26659 8.20016 6.19992 8.1335 6.19992 8.00016V3.66683C6.19992 3.5335 6.26659 3.46683 6.33325 3.40016C6.39992 3.3335 6.53325 3.3335 6.66659 3.40016L10.6666 5.5335C10.7999 5.60016 10.8666 5.66683 10.8666 5.80016C10.8666 5.9335 10.7333 6.06683 10.5999 6.1335Z" fill="black"/>
    </g>

    <g id='twitter'>
        <path d="M13.9116 2.25151C13.3912 2.48253 12.8389 2.63389 12.2733 2.70053C12.8692 2.3443 13.3151 1.7833 13.5275 1.12234C12.9677 1.45479 12.3551 1.68902 11.7162 1.81492C11.4494 1.53016 11.1269 1.30326 10.7688 1.1483C10.4107 0.99333 10.0245 0.913605 9.63428 0.914064C8.0592 0.914064 6.78215 2.19112 6.78215 3.76648C6.78215 3.98972 6.80727 4.20731 6.85609 4.41644C4.48543 4.29734 2.38344 3.16196 0.976566 1.43617C0.722819 1.8715 0.589561 2.36654 0.590486 2.87043C0.590486 3.8599 1.09397 4.73309 1.85936 5.24448C1.40639 5.2301 0.963422 5.1077 0.567344 4.88747L0.567062 4.92359C0.567062 6.30535 1.55032 7.45794 2.85532 7.72041C2.43512 7.83416 1.99454 7.85076 1.56697 7.76895C1.93019 8.90207 2.98345 9.727 4.23143 9.74986C3.22113 10.5429 1.97338 10.9731 0.688982 10.971C0.458971 10.971 0.231782 10.9575 0.00854492 10.931C1.31271 11.7692 2.83069 12.2141 4.38101 12.2125C9.62779 12.2125 12.4966 7.86632 12.4966 4.09696C12.4966 3.97335 12.494 3.85002 12.4887 3.72753C13.0472 3.3243 13.5291 2.82442 13.9116 2.25151Z" fill="black"/>
    </g>

    <g id='discord'>
        <path d="M5.35884 0.445801C4.85049 0.445801 3.31791 1.06753 3.04295 1.19178C2.76799 1.31603 2.4628 1.7039 2.1165 2.34405C1.76974 2.9842 1.49147 3.73254 1.03935 4.83332C0.587701 5.93409 0.482347 8.05628 0.497465 8.70399C0.512583 9.3517 0.586756 9.85768 1.25053 10.2408C1.91383 10.6235 2.5006 11.0241 3.11807 11.2651C3.73602 11.506 4.15743 11.6794 4.44373 11.4384C4.73002 11.1975 4.91852 10.7756 4.91852 10.7756C4.91852 10.7756 5.1897 10.3991 4.67758 10.1733C4.16546 9.94697 3.9094 9.7887 3.9316 9.55532C3.95428 9.32193 3.9916 9.1939 4.11963 9.22414C4.24766 9.25438 4.54955 9.79626 5.70938 10.0448C6.86921 10.2933 7.99975 10.2559 7.99975 10.2559C7.99975 10.2559 9.13077 10.2937 10.2906 10.0448C11.4504 9.79626 11.7518 9.25438 11.8799 9.22414C12.0079 9.1939 12.0452 9.32193 12.0679 9.55484C12.0906 9.7887 11.8345 9.94697 11.3224 10.1733C10.8103 10.3991 11.0815 10.7756 11.0815 10.7756C11.0815 10.7756 11.27 11.197 11.5563 11.4384C11.8421 11.6794 12.264 11.506 12.8814 11.2651C13.4989 11.0241 14.0862 10.624 14.7495 10.2408C15.4132 9.85768 15.4874 9.3517 15.5025 8.70399C15.5176 8.05675 15.4123 5.93409 14.9602 4.83332C14.5085 3.73254 14.2298 2.9842 13.883 2.34405C13.5372 1.7039 13.2315 1.31603 12.957 1.19131C12.6821 1.06753 11.149 0.445801 10.6407 0.445801C10.1323 0.445801 9.9821 0.800128 9.9821 0.800128L9.80493 1.19178C9.80493 1.19178 8.61439 0.965481 8.00779 0.965008C7.40118 0.965008 6.19505 1.19178 6.19505 1.19178L6.01788 0.799656C6.01788 0.799656 5.86765 0.445801 5.35884 0.445801ZM5.41411 5.1456H5.43301C6.17426 5.1456 6.77473 5.79425 6.77473 6.59409C6.77473 7.39439 6.17426 8.04258 5.43301 8.04258C4.69175 8.04258 4.09129 7.39439 4.09129 6.59409C4.09082 5.80181 4.68042 5.15646 5.41411 5.1456ZM10.567 5.1456H10.5859C11.3196 5.15646 11.9087 5.80228 11.9087 6.59409C11.9087 7.39439 11.3082 8.04258 10.567 8.04258C9.82525 8.04258 9.22525 7.39439 9.22525 6.59409C9.22525 5.79425 9.82525 5.1456 10.567 5.1456Z" fill="black"/>
    </g>

    <g id='reddit'>
        <path d="M13.9694 7.02704C13.969 6.60133 13.7997 6.19319 13.4986 5.89217C13.1976 5.59115 12.7895 5.42184 12.3638 5.42139C11.9739 5.42093 11.5975 5.5634 11.3056 5.82182C10.2437 5.14231 8.82685 4.71423 7.2641 4.66795L8.22043 1.39741L10.5682 1.83367C10.5682 1.85286 10.5643 1.87092 10.5654 1.89011C10.5794 2.15874 10.6994 2.41085 10.8991 2.59114C11.0987 2.77143 11.3617 2.86517 11.6304 2.8518C11.899 2.83771 12.151 2.71769 12.3312 2.51805C12.5115 2.31841 12.6052 2.05545 12.5918 1.78683C12.5778 1.51819 12.4578 1.26608 12.2581 1.08579C12.0585 0.905505 11.7955 0.811765 11.5268 0.825132C11.3557 0.834241 11.1896 0.88666 11.0443 0.977476C10.8989 1.06829 10.779 1.19453 10.6958 1.34436L10.6949 1.34407L7.86572 0.818359L6.73895 4.66739C5.17225 4.70887 3.75087 5.13469 2.68449 5.81279C2.39385 5.55988 2.02143 5.42084 1.63616 5.42139C1.21048 5.42192 0.80238 5.59125 0.501377 5.89225C0.200374 6.19326 0.0310403 6.60135 0.0305176 7.02704C0.0305176 7.57448 0.312422 8.07959 0.769001 8.3742C0.740463 8.53537 0.72583 8.6987 0.725262 8.86238C0.725262 11.1797 3.53472 13.0653 6.98812 13.0653C10.4415 13.0653 13.2504 11.1797 13.2504 8.8621C13.2504 8.70182 13.2357 8.54379 13.2095 8.38802C13.4413 8.24435 13.6326 8.044 13.7655 7.80589C13.8984 7.56777 13.9688 7.29973 13.9694 7.02704ZM4.01161 8.11966C4.01165 7.99009 4.03721 7.8618 4.08682 7.74211C4.13644 7.62241 4.20915 7.51366 4.3008 7.42207C4.39245 7.33047 4.50124 7.25783 4.62096 7.20828C4.74068 7.15873 4.86899 7.13324 4.99856 7.13328C5.12813 7.13332 5.25643 7.15887 5.37612 7.20849C5.49581 7.25811 5.60456 7.33082 5.69616 7.42247C5.78775 7.51411 5.8604 7.6229 5.90995 7.74263C5.9595 7.86235 5.98498 7.99066 5.98494 8.12023C5.98487 8.38191 5.88085 8.63284 5.69576 8.81783C5.51067 9.00281 5.25968 9.10669 4.998 9.10661C4.73632 9.10654 4.48538 9.00251 4.3004 8.81743C4.11542 8.63234 4.01154 8.38135 4.01161 8.11966ZM9.3139 10.7886C9.28456 10.8191 8.57655 11.5395 6.97655 11.5395C5.36808 11.5395 4.7247 10.8092 4.69845 10.7781C4.65777 10.7272 4.6384 10.6624 4.64441 10.5975C4.65042 10.5326 4.68134 10.4725 4.73069 10.4299C4.78004 10.3872 4.84398 10.3654 4.9091 10.3688C4.97422 10.3723 5.03546 10.4009 5.07997 10.4486C5.09464 10.4644 5.63136 11.0352 6.97627 11.0352C8.34487 11.0352 8.9448 10.444 8.95101 10.4384C8.99842 10.3951 9.06055 10.3714 9.12478 10.3723C9.189 10.3731 9.25049 10.3984 9.29672 10.443C9.34296 10.4876 9.37047 10.5481 9.37366 10.6122C9.37686 10.6764 9.35549 10.7396 9.3139 10.7886ZM9.11778 9.10647C8.98823 9.10653 8.85994 9.08107 8.74022 9.03154C8.62051 8.98201 8.51173 8.90939 8.42008 8.81783C8.32843 8.72626 8.25572 8.61753 8.20609 8.49787C8.15646 8.3782 8.13089 8.24992 8.13083 8.12037C8.13078 7.99082 8.15624 7.86252 8.20577 7.74281C8.25529 7.6231 8.32791 7.51431 8.41948 7.42267C8.51105 7.33102 8.61977 7.25831 8.73944 7.20868C8.85911 7.15905 8.98739 7.13348 9.11694 7.13342C9.37858 7.13331 9.62955 7.23714 9.81464 7.42207C9.99973 7.607 10.1038 7.85788 10.1039 8.11952C10.104 8.38117 10.0002 8.63214 9.81524 8.81723C9.63031 9.00232 9.37943 9.10636 9.11778 9.10647Z" fill="black"/>
    </g>

    <g id='github'>
        <path fill-rule="evenodd" clip-rule="evenodd" d="M8 0C3.58233 0 0 3.67233 0 8.20233C0 11.8267 2.29233 14.9013 5.471 15.9857C5.871 16.0617 6.01767 15.808 6.01767 15.5913C6.01767 15.3957 6.01 14.7497 6.00667 14.0643C3.781 14.5603 3.31133 13.0963 3.31133 13.0963C2.94733 12.1483 2.423 11.8963 2.423 11.8963C1.69733 11.387 2.478 11.3977 2.478 11.3977C3.28133 11.4553 3.70433 12.2427 3.70433 12.2427C4.41767 13.4967 5.57567 13.1343 6.03233 12.9247C6.104 12.3947 6.31133 12.0327 6.54 11.828C4.76333 11.6203 2.89533 10.917 2.89533 7.774C2.89533 6.87867 3.20767 6.14667 3.71967 5.57233C3.63633 5.36567 3.36267 4.53133 3.797 3.40167C3.797 3.40167 4.469 3.18133 5.99767 4.24233C6.63567 4.06067 7.32033 3.96967 8 3.96633C8.68 3.96967 9.365 4.06067 10.0043 4.24233C11.531 3.18133 12.202 3.40167 12.202 3.40167C12.6373 4.53167 12.3633 5.36567 12.2803 5.57233C12.7937 6.14667 13.1037 6.87867 13.1037 7.774C13.1037 10.9247 11.2323 11.6183 9.45067 11.8213C9.73767 12.076 9.99333 12.575 9.99333 13.3403C9.99333 14.4377 9.98433 15.321 9.98433 15.5913C9.98433 15.8097 10.1283 16.0653 10.5337 15.9847C13.7107 14.899 16 11.8253 16 8.20233C16 3.67233 12.4183 0 8 0Z" fill="black"/>
    </g>

    <g id='telegram'>
        <path d="M15.1465 2.06965L12.9772 12.3C12.8136 13.022 12.3868 13.2016 11.7802 12.8616L8.47498 10.4259L6.88017 11.9598C6.7037 12.1363 6.55605 12.284 6.21592 12.284L6.45336 8.91765L12.5793 3.38211C12.8457 3.14468 12.5216 3.01308 12.1654 3.25055L4.59217 8.01912L1.33183 6.99868C0.622639 6.77724 0.609827 6.28946 1.47942 5.94933L14.232 1.03637C14.8224 0.814959 15.339 1.1679 15.1465 2.06965Z" fill="black"/>
    </g>

    <g id='language'>
        <path d="M12.8901 6.25C12.3347 2.76172 11.0246 0.3125 9.5 0.3125C7.9754 0.3125 6.66532 2.76172 6.10988 6.25H12.8901ZM5.82258 10C5.82258 10.8672 5.86855 11.6992 5.94899 12.5H13.0472C13.1276 11.6992 13.1736 10.8672 13.1736 10C13.1736 9.13281 13.1276 8.30078 13.0472 7.5H5.94899C5.86855 8.30078 5.82258 9.13281 5.82258 10ZM18.2607 6.25C17.1651 3.59766 14.9472 1.54688 12.2083 0.71875C13.1429 2.03906 13.7865 4.02734 14.1236 6.25H18.2607ZM6.7879 0.71875C4.05282 1.54688 1.83105 3.59766 0.739314 6.25H4.87641C5.20968 4.02734 5.85323 2.03906 6.7879 0.71875ZM18.6706 7.5H14.2768C14.3573 8.32031 14.4032 9.16016 14.4032 10C14.4032 10.8398 14.3573 11.6797 14.2768 12.5H18.6667C18.8774 11.6992 18.9962 10.8672 18.9962 10C18.9962 9.13281 18.8774 8.30078 18.6706 7.5ZM4.59677 10C4.59677 9.16016 4.64274 8.32031 4.72319 7.5H0.329435C0.122581 8.30078 0 9.13281 0 10C0 10.8672 0.122581 11.6992 0.329435 12.5H4.71935C4.64274 11.6797 4.59677 10.8398 4.59677 10ZM6.10988 13.75C6.66532 17.2383 7.9754 19.6875 9.5 19.6875C11.0246 19.6875 12.3347 17.2383 12.8901 13.75H6.10988ZM12.2121 19.2812C14.9472 18.4531 17.169 16.4023 18.2645 13.75H14.1274C13.7903 15.9727 13.1468 17.9609 12.2121 19.2812ZM0.739314 13.75C1.83488 16.4023 4.05282 18.4531 6.79173 19.2812C5.85706 17.9609 5.21351 15.9727 4.87641 13.75H0.739314Z" fill="#848895"/>
    </g>
</svg>
